# xmcd CD database file
#
# Track frame offsets:
#	150
#	17656
#	39496
#	66329
#	84464
#	97837
#	112805
#	128193
#	141917
#	163665
#	178911
#	199520
#	220127
#
# Disc length: 3109 seconds
#
# Revision: 0
# Processed by: cddbd v1.5.2PL0 Copyright (c) Steve Scherf et al.
# Submitted via: CDex 1.51
#
DISCID=ae0c230d
DTITLE=Elkie Brooks and Humphrey Lyttelton - Trouble in mind
DYEAR=1900
DGENRE=Jazz
TTITLE0=Three Long Years
TTITLE1=Trouble in mind
TTITLE2=Ev'ry day I have the blues
TTITLE3=I cried for you
TTITLE4=If you're goin' to the city
TTITLE5=Jelly bean blues
TTITLE6=Yesterdays
TTITLE7=Mister bad penny blues
TTITLE8=Rocky mountain blues
TTITLE9=I'm gonna lock my heart
TTITLE10=Some other spring
TTITLE11=Do your duty
TTITLE12=What's your story mornin' glory
EXTD=
EXTT0=
EXTT1=
EXTT2=
EXTT3=
EXTT4=
EXTT5=
EXTT6=
EXTT7=
EXTT8=
EXTT9=
EXTT10=
EXTT11=
EXTT12=
PLAYORDER=
